<svg width="119" height="21" viewBox="0 0 119 21" fill="none" xmlns="http://www.w3.org/2000/svg">
<path d="M115.888 0H119L111.769 11.7169H108.565L101.333 0H104.995L110.212 8.42154L115.339 0H115.888Z" fill="white"/>
<path d="M89.4334 5.12615L87.6942 9.61154L85.5888 15.1954L84.8565 17.1177L83.8496 19.7723H80.4626L88.1519 0H90.8065L98.4042 19.7723H97.1226H95.0173L94.285 17.6669L94.1934 17.5754L93.278 15.1954L92.1796 12.0831L89.4334 5.12615Z" fill="white"/>
<path d="M66.1826 0.915385V16.66H74.6957V19.7723H63.0703V0H66.1826V0.915385Z" fill="white"/>
<path d="M45.7693 9.79461H46.7762H49.6139C50.6208 9.79461 51.4447 9.42846 51.9939 8.87923C52.5431 8.33 52.9093 7.41461 52.9093 6.49923C52.9093 5.49231 52.5431 4.66846 51.9939 4.02769C51.4447 3.47846 50.6208 3.11231 49.6139 3.11231H46.7762H45.7693H42.5654V0H43.4808H49.6139C51.4447 0 53.0924 0.732308 54.2824 1.83077C55.4724 3.02077 56.1131 4.57692 56.1131 6.40769C56.1131 8.23846 55.3808 9.88615 54.2824 10.9846C53.0924 12.1746 51.5362 12.8154 49.6139 12.8154H45.7693V19.6808H42.5654V9.79461H45.7693Z" fill="white"/>
<path d="M33.4116 12.9069H35.7V16.0192H33.4116V19.7723H30.2077V16.0192H20.5962V13.5477L27.7362 0H31.2147L24.4408 12.9069H30.2077V7.23154H33.4116V12.9069Z" fill="white"/>
<path d="M12.6323 2.74615L9.06231 7.78077C10.1608 8.14692 11.1677 8.69615 11.9915 9.42846C12.9985 10.4354 13.6392 11.9 13.6392 13.6392C13.6392 15.5615 12.9069 17.1177 11.7169 18.2162C10.4354 19.4062 8.69615 20.0469 6.86539 20.0469C5.40077 20.0469 3.93615 19.6808 2.83769 19.04C1.73923 18.3992 0.823846 17.3923 0.274615 16.1108L0 15.3785L2.74615 13.7308L3.11231 14.7377C3.38692 15.47 3.84462 15.9277 4.39385 16.2938C5.03462 16.66 5.85846 16.8431 6.86539 16.8431C7.96385 16.8431 8.97077 16.4769 9.61154 15.9277C10.2523 15.3785 10.5269 14.5546 10.5269 13.5477C10.5269 12.5408 10.1608 11.7169 9.52 11.1677C8.87923 10.6185 7.87231 10.2523 6.77385 10.2523H5.85846V10.1608L4.66846 8.42154L8.60462 2.92923H0.640769V0H12.8154V2.47154L12.6323 2.74615Z" fill="white"/>
</svg>
