<svg width="126" height="22" viewBox="0 0 126 22" fill="none" xmlns="http://www.w3.org/2000/svg">
<path d="M122.705 0H126L118.343 12.4061H114.951L107.294 0H111.171L116.695 8.9169L122.123 0H122.705Z" fill="white"/>
<path d="M94.6939 5.42768L92.8523 10.1769L90.6231 16.0892L89.8477 18.1246L88.7816 20.9353H85.1954L93.337 0H96.1477L104.192 20.9353H102.835H100.606L99.8308 18.7061L99.7339 18.6092L98.7646 16.0892L97.6016 12.7938L94.6939 5.42768Z" fill="white"/>
<path d="M70.0757 0.969228V17.64H79.0895V20.9353H66.7803V0H70.0757V0.969228Z" fill="white"/>
<path d="M48.4614 10.3707H49.5275H52.5322C53.5983 10.3707 54.4706 9.98305 55.0521 9.40152C55.6337 8.81998 56.0214 7.85075 56.0214 6.88152C56.0214 5.81537 55.6337 4.94306 55.0521 4.2646C54.4706 3.68307 53.5983 3.29538 52.5322 3.29538H49.5275H48.4614H45.0691V0H46.0383H52.5322C54.4706 0 56.2152 0.775383 57.4752 1.93846C58.7352 3.19845 59.4137 4.84614 59.4137 6.7846C59.4137 8.72305 58.6383 10.4677 57.4752 11.6307C56.2152 12.8907 54.5675 13.5692 52.5322 13.5692H48.4614V20.8384H45.0691V10.3707H48.4614Z" fill="white"/>
<path d="M35.3771 13.6661H37.8001V16.9615H35.3771V20.9353H31.9848V16.9615H21.8079V14.3446L29.3678 0H33.0509L25.8786 13.6661H31.9848V7.6569H35.3771V13.6661Z" fill="white"/>
<path d="M13.3754 2.90768L9.59536 8.23844C10.7584 8.62613 11.8246 9.20767 12.6969 9.98305C13.763 11.0492 14.4415 12.6 14.4415 14.4415C14.4415 16.4769 13.6661 18.1246 12.4061 19.2876C11.0492 20.5476 9.20767 21.2261 7.26921 21.2261C5.71845 21.2261 4.16768 20.8384 3.00461 20.1599C1.84153 19.4815 0.872306 18.4153 0.290769 17.0584L0 16.283L2.90769 14.5384L3.29538 15.6046C3.58615 16.38 4.07076 16.8646 4.6523 17.2523C5.33076 17.64 6.20306 17.8338 7.26921 17.8338C8.43229 17.8338 9.49844 17.4461 10.1769 16.8646C10.8554 16.283 11.1461 15.4107 11.1461 14.3446C11.1461 13.2784 10.7584 12.4061 10.08 11.8246C9.40152 11.243 8.33537 10.8554 7.17229 10.8554H6.20306V10.7584L4.94307 8.9169L9.11075 3.10153H0.67846V0H13.5692V2.61692L13.3754 2.90768Z" fill="white"/>
</svg>
